{"title":"Run All Night 2015 720p BluRay x264 SPARKS DUAL","uid":12019117,"size":5281852111,"categoryP":"video","categoryS":"hd___movies","magnet":"?xt=urn:btih:b6d21342e37bdeab357f848985cdda36358e9070&amp;dn=Run+All+Night+2015+720p+BluRay+x264+SPARKS+DUAL&amp;tr=udp%3A%2F%2Ftracker.openbittorrent.com%3A80&amp;tr=udp%3A%2F%2Fopen.demonii.com%3A1337&amp;tr=udp%3A%2F%2Ftracker.coppersurfer.tk%3A6969&amp;tr=udp%3A%2F%2Fexodus.desync.com%3A6969","seeders":1,"leechers":0,"uploader":"Alemao99","files":4,"time":1434382287,"description":"The gangster from Brooklyn and professional killer Jimmy Conlon (Neeson), who was known as the Gravedigger, has lived better days. Longtime friend of the boss of the Mafia Shawn Maguire (Harris), Jimmy, now at 55, is haunted by the sins committed in the past - as well as a persistent police detective who 30 years ago is one step behind Jimmy. Lately it seems that the only Jimmy console is at the bottom of a glass of whiskey.\n\nBut when the son of Jimmy, Mike (Kinnaman), becomes a target, Jimmy has to choose between crime family, he chose, and his real family, he abandoned long ago. With Mike on the run, the only penance for the mistakes committed in the past is Jimmy prevent your child has the same fate he will certainly have ... on the wrong side of a gun, that is, with a gun pointed at him. Now, without having to turn to, Jimmy has just one night to decide exactly who owns their loyalty and see if finally do the right thing.\n\nTitle in Brazil: Endless Night\nOriginal title: Run All Night\nCountry of Origin: USA\nGenre: Action / Thriller\nRelease Date: 2015\nDuration: 114 min\nDirected by Laurent Tuel\nIMDb: http://www.imdb.com/title/tt2199571\n\nSize: 4.92 GB\nExtension Archive: .MKV\nVideo Quality: Blu-Ray\nVideo codec: H.264 / AVC\nAudio codec: AC3 5.1\nResolution: 1280 x 536\nAudio: Portuguese / English\nLegend: Portuguese\n\nVideo\nID                                       : 1\nFormat                                   : AVC\nFormat/Info                              : Advanced Video Codec\nFormat profile                           : &lt;a class=&quot;__cf_email__&quot; href=&quot;/cdn-cgi/l/email-protection&quot; data-cfemail=&quot;5018393738101c647e61&quot;&gt;[email&amp;#160;protected]&lt;/a&gt;&lt;script data-cfhash='f9e31' type=&quot;text/javascript&quot;&gt;\n/* &lt;![CDATA[ */!function(){try{var t=&quot;currentScript&quot;in document?document.currentScript:function(){for(var t=document.getElementsByTagName(&quot;script&quot;),e=t.length;e--;)if(t[e].getAttribute(&quot;data-cfhash&quot;))return t[e]}();if(t&amp;&amp;t.previousSibling){var e,r,n,i,c=t.previousSibling,a=c.getAttribute(&quot;data-cfemail&quot;);if(a){for(e=&quot;&quot;,r=parseInt(a.substr(0,2),16),n=2;a.length-n;n+=2)i=parseInt(a.substr(n,2),16)^r,e+=String.fromCharCode(i);e=document.createTextNode(e),c.parentNode.replaceChild(e,c)}t.parentNode.removeChild(t);}}catch(u){}}()/* ]]&gt; */&lt;/script&gt;\nFormat settings, CABAC                   : Yes\nFormat settings, ReFrames                : 5 frames\nMuxing mode                              : Header stripping\nCodec ID                                 : V_MPEG4/ISO/AVC\nDuration                                 : 1h 54mn\nBit rate                                 : 5 327 Kbps\nWidth                                    : 1 280 pixels\nHeight                                   : 536 pixels\nDisplay aspect ratio                     : 2.40:1\nFrame rate                               : 23.976 fps\nColor space                              : YUV\nChroma subsampling                       : 4:2:0\nBit depth                                : 8 bits\nScan type                                : Progressive\nBits/(Pixel*Frame)                       : 0.324\nStream size                              : 4.16 GiB (84%)\nTitle                                    : DUAL-LAPUMiA\nWriting library                          : x264 core 146 r2538 121396c\nEncoding settings                        : cabac=1 / ref=5 / deblock=1:0:0 / analyse=0x3:0x133 / me=umh / subme=7 / psy=1 / psy_rd=1.00:0.00 / mixed_ref=1 / me_range=16 / chroma_me=1 / trellis=1 / 8x8dct=1 / cqm=0 / deadzone=21,11 / fast_pskip=0 / chroma_qp_offset=-2 / threads=18 / lookahead_threads=3 / sliced_threads=0 / nr=0 / decimate=1 / interlaced=0 / bluray_compat=0 / constrained_intra=0 / bframes=3 / b_pyramid=2 / b_adapt=1 / b_bias=0 / direct=1 / weightb=1 / open_gop=0 / weightp=2 / keyint=250 / keyint_min=23 / scenecut=40 / intra_refresh=0 / rc_lookahead=40 / rc=2pass / mbtree=1 / bitrate=5327 / ratetol=1.0 / qcomp=0.60 / qpmin=0 / qpmax=69 / qpstep=4 / cplxblur=20.0 / qblur=0.5 / ip_ratio=1.40 / aq=1:1.00\nLanguage                                 : English\nDefault                                  : Yes\nForced                                   : No\n\nAudio #1\nID                                       : 2\nFormat                                   : AC-3\nFormat/Info                              : Audio Coding 3\nMode extension                           : CM (complete main)\nFormat settings, Endianness              : Big\nMuxing mode                              : Header stripping\nCodec ID                                 : A_AC3\nDuration                                 : 1h 54mn\nBit rate mode                            : Constant\nBit rate                                 : 448 Kbps\nChannel(s)                               : 6 channels\nChannel positions                        : Front: L C R, Side: L R, LFE\nSampling rate                            : 48.0 KHz\nBit depth                                : 16 bits\nCompression mode                         : Lossy\nStream size                              : 366 MiB (7%)\nTitle                                    : PT-BR AC3 5.1 LAPUMiA\nLanguage                                 : Portuguese\nDefault                                  : Yes\nForced                                   : No\n\nAudio #2\nID                                       : 3\nFormat                                   : AC-3\nFormat/Info                              : Audio Coding 3\nMode extension                           : CM (complete main)\nFormat settings, Endianness              : Big\nMuxing mode                              : Header stripping\nCodec ID                                 : A_AC3\nDuration                                 : 1h 54mn\nBit rate mode                            : Constant\nBit rate                                 : 384 Kbps\nChannel(s)                               : 6 channels\nChannel positions                        : Front: L C R, Side: L R, LFE\nSampling rate                            : 48.0 KHz\nBit depth                                : 16 bits\nCompression mode                         : Lossy\nStream size                              : 314 MiB (6%)\nTitle                                    : ENG AC3 5.1 LAPUMiA\nLanguage                                 : English\nDefault                                  : No\nForced                                   : No","torrent":{"xt":"urn:btih:b6d21342e37bdeab357f848985cdda36358e9070","amp;dn":"Run+All+Night+2015+720p+BluRay+x264+SPARKS+DUAL","amp;tr":["udp%3A%2F%2Ftracker.openbittorrent.com%3A80","udp%3A%2F%2Fopen.demonii.com%3A1337","udp%3A%2F%2Ftracker.coppersurfer.tk%3A6969","udp%3A%2F%2Fexodus.desync.com%3A6969"],"infoHash":"b6d21342e37bdeab357f848985cdda36358e9070","infoHashBuffer":{"type":"Buffer","data":[182,210,19,66,227,123,222,171,53,127,132,137,133,205,218,54,53,142,144,112]},"announce":[],"urlList":[]}}